<?xml version="1.0" standalone="no"?>
<!DOCTYPE svg PUBLIC "-//W3C//DTD SVG 20010904//EN"
 "http://www.w3.org/TR/2001/REC-SVG-20010904/DTD/svg10.dtd">
<svg version="1.0" xmlns="http://www.w3.org/2000/svg"
 width="250.000000pt" height="167.000000pt" viewBox="0 0 250.000000 167.000000"
 preserveAspectRatio="xMidYMid meet">
<metadata>
Created by potrace 1.15, written by Peter Selinger 2001-2017
</metadata>
<g transform="translate(0.000000,167.000000) scale(0.100000,-0.100000)"
fill="#000000" stroke="none">
<path d="M16 1154 c-14 -14 -16 -81 -16 -585 l0 -569 1250 0 1250 0 0 560 0
559 -47 0 c-27 -1 -59 0 -72 0 -14 1 -29 -5 -33 -12 -6 -9 -10 -9 -18 3 -8 12
-10 12 -10 -5 0 -14 -3 -16 -8 -8 -6 9 -17 10 -39 4 -17 -5 -36 -5 -43 -1 -7
5 -19 6 -27 3 -7 -3 -20 0 -27 6 -11 9 -15 9 -19 -1 -4 -10 -6 -10 -6 0 -1 10
-7 10 -28 -1 -30 -14 -67 -12 -58 4 8 12 -1 11 -24 -3 -15 -9 -25 -7 -53 10
-44 28 -58 28 -28 2 l23 -20 -49 1 c-27 1 -55 6 -61 12 -7 5 -19 7 -27 4 -8
-3 -17 -1 -20 6 -3 8 -8 6 -16 -5 -6 -10 -16 -18 -21 -18 -6 0 -7 5 -4 10 9
15 -7 12 -29 -5 -11 -8 -25 -15 -30 -15 -6 0 -4 5 4 10 12 8 10 10 -10 11 -63
4 -76 3 -87 -5 -8 -5 -13 -4 -13 3 0 8 -5 9 -16 3 -8 -5 -43 -5 -80 0 -77 11
-100 6 -61 -12 31 -15 34 -25 11 -34 -8 -3 -12 -2 -9 4 3 6 1 10 -4 10 -6 0
-11 -4 -11 -10 0 -19 -18 -10 -23 11 -3 12 -10 18 -16 14 -25 -15 -55 -14 -67
2 -9 14 -15 15 -26 5 -8 -6 -17 -10 -20 -7 -3 3 -11 -1 -18 -10 -10 -12 -8
-16 15 -25 15 -6 38 -11 51 -12 16 -2 20 -6 13 -14 -6 -7 -4 -16 6 -24 12 -10
15 -10 15 0 0 9 10 11 30 6 18 -3 29 -2 25 3 -9 15 32 23 55 11 16 -8 20 -8
18 2 -2 7 -7 16 -12 20 -6 4 -5 13 3 22 10 12 18 13 36 4 14 -6 23 -14 21 -17
-4 -6 1 -7 84 -15 65 -7 109 -17 116 -27 3 -5 13 -9 22 -9 14 0 17 -13 20 -85
2 -75 1 -84 -14 -78 -14 5 -15 -1 -9 -53 3 -32 11 -69 18 -82 9 -19 8 -25 -3
-32 -12 -8 -13 -15 -3 -41 12 -30 11 -31 -6 -15 -11 10 -33 18 -51 18 -26 1
-31 5 -27 20 3 10 1 18 -4 18 -5 0 -9 -11 -9 -24 0 -28 -14 -42 -55 -52 -27
-7 -29 -6 -17 9 8 9 20 13 29 10 11 -4 14 -2 9 5 -4 7 -16 12 -27 12 -12 0
-19 7 -19 20 0 13 -7 20 -19 20 -24 0 -35 36 -13 45 13 5 14 8 1 19 -8 7 -26
16 -41 20 -23 5 -27 3 -21 -11 5 -16 4 -16 -9 1 -14 18 -15 18 -32 -5 l-17
-24 6 27 c4 15 2 35 -5 45 -10 16 -10 16 -5 -3 6 -23 -12 -36 -53 -39 -15 -1
-21 4 -18 12 3 8 -3 14 -14 14 -33 2 -38 4 -46 12 -4 4 1 7 12 8 18 0 18 1 -1
9 -15 6 -11 7 17 7 21 -1 33 -4 27 -8 -7 -4 -2 -12 12 -23 32 -22 40 -20 29 8
-7 20 -5 25 13 30 38 10 67 7 106 -13 44 -23 74 -77 50 -91 -20 -13 -8 -19 24
-13 15 3 27 12 27 21 0 12 4 12 22 -4 19 -17 21 -17 15 -1 -4 9 -2 17 3 17 6
0 10 -7 10 -15 0 -8 5 -15 10 -15 6 0 10 6 10 13 0 32 -14 55 -41 71 -17 10
-39 32 -49 49 -26 42 -12 57 53 57 50 0 59 7 18 15 -11 2 -25 6 -29 9 -5 3
-21 -2 -37 -10 -35 -18 -60 -3 -44 27 13 25 -6 26 -20 2 -6 -10 -11 -13 -11
-7 0 7 -6 14 -13 17 -9 3 -12 -4 -9 -28 3 -25 -1 -36 -16 -44 -11 -6 -22 -8
-25 -4 -4 3 -24 7 -47 8 -33 2 -38 0 -29 -11 14 -17 5 -18 -23 -3 -32 17 -79
29 -73 18 4 -5 13 -9 21 -9 21 0 17 -28 -6 -35 -11 -3 -30 -3 -41 0 -15 5 -19
4 -15 -4 4 -6 0 -11 -8 -11 -9 0 -16 -5 -16 -11 0 -5 5 -7 12 -3 8 5 9 2 4
-11 -7 -18 -6 -18 14 0 16 15 20 15 20 3 0 -8 16 -23 35 -34 35 -18 49 -39 20
-28 -11 5 -14 1 -9 -12 3 -11 -3 -6 -14 10 -20 28 -20 28 -27 6 -5 -15 0 -29
17 -47 20 -23 21 -25 4 -19 -20 7 -20 7 0 -16 l19 -22 -27 17 c-16 10 -28 14
-28 9 0 -17 26 -40 54 -46 26 -6 28 -5 24 17 -4 20 -1 23 19 19 13 -2 31 2 40
9 15 13 15 12 2 -8 -7 -12 -20 -24 -29 -27 -8 -2 -3 -4 12 -5 15 0 30 -6 33
-12 4 -6 14 -8 22 -5 8 3 12 2 8 -3 -3 -5 -2 -16 1 -25 11 -28 31 0 26 35 -4
29 -3 30 17 19 19 -10 20 -14 9 -28 -11 -14 -10 -15 7 -8 11 5 31 11 45 14 22
5 23 3 12 -11 -8 -9 -20 -13 -29 -10 -13 5 -14 0 -9 -28 5 -28 4 -30 -4 -11
-5 12 -12 22 -15 22 -8 0 0 -64 10 -80 6 -9 3 -9 -13 -1 -13 7 -19 17 -16 26
5 11 2 13 -10 9 -15 -6 -15 -8 0 -33 l17 -26 -21 19 c-15 13 -22 15 -22 6 0
-9 -7 -8 -25 4 -21 14 -24 14 -19 1 4 -8 1 -15 -5 -15 -6 0 -11 6 -11 13 0 8
-7 14 -15 14 -9 0 -14 -6 -11 -14 7 -17 -18 -17 -33 1 -7 8 -30 17 -52 21 -37
6 -42 12 -42 50 0 6 -11 21 -24 35 l-23 25 0 -28 c0 -15 -3 -27 -7 -27 -12 0
-13 54 -1 61 14 9 -38 40 -72 42 -17 1 -30 5 -30 9 0 3 -15 16 -33 27 -32 19
-77 19 -77 0 0 -5 -4 -9 -9 -9 -19 0 2 39 23 42 11 2 20 9 19 15 -4 20 36 22
42 2 4 -10 11 -19 17 -19 5 0 7 7 4 16 -8 21 50 69 83 69 19 0 27 6 29 23 2
14 -2 22 -11 22 -9 0 -17 6 -20 13 -2 6 -8 8 -13 4 -5 -5 -1 -15 10 -23 20
-14 20 -14 0 -14 -11 0 -24 4 -30 10 -12 12 -39 -4 -30 -19 4 -6 12 -9 17 -6
5 4 9 2 9 -3 0 -11 -62 -23 -70 -13 -9 11 -55 9 -63 -3 -5 -8 -12 -6 -21 7 -7
9 -23 17 -34 17 -11 0 -24 5 -27 10 -3 6 0 10 7 10 7 0 30 12 51 26 21 14 48
26 60 27 22 1 37 14 37 31 0 4 -7 6 -15 2 -17 -6 -19 2 -5 24 5 8 10 11 10 5
0 -6 3 -6 8 0 8 12 52 41 102 68 l35 18 -34 -5 c-18 -4 -42 -6 -53 -6 -14 0
-18 -5 -14 -16 5 -13 2 -15 -16 -11 -14 4 -29 0 -40 -10 -10 -9 -18 -13 -18
-9 0 3 -14 -1 -30 -9 -17 -9 -35 -13 -40 -10 -6 3 -10 -1 -10 -9 0 -9 -5 -16
-12 -16 -6 0 -20 -7 -30 -17 -10 -9 -18 -12 -18 -6 0 16 36 49 69 63 29 12 46
38 18 27 -7 -3 -13 3 -13 13 0 12 7 16 23 14 13 -1 21 1 18 6 -3 5 1 11 7 13
7 3 4 6 -7 6 -16 1 -14 5 13 21 18 11 37 18 43 15 5 -4 9 -2 9 2 0 12 -43 38
-55 34 -16 -6 -98 -22 -122 -24 -11 -1 -19 -5 -17 -8 7 -12 -46 -20 -66 -9
-10 5 -34 10 -52 10 -19 0 -39 5 -45 11 -8 8 -16 7 -30 -1 -14 -9 -32 -10 -66
-3 -25 6 -48 8 -51 6 -8 -8 -126 -9 -126 -1 0 13 -50 9 -50 -4 0 -8 -7 -5 -15
6 -9 12 -15 15 -15 7 0 -10 -22 -12 -103 -7 -56 4 -127 8 -158 9 -32 1 -55 5
-52 10 8 14 -26 7 -41 -9z m754 -335 c0 -5 -8 -9 -17 -10 -11 0 -13 -3 -5 -6
6 -2 9 -10 5 -16 -4 -7 5 -4 19 5 17 11 29 14 33 8 3 -6 20 -8 37 -5 29 5 58
-8 58 -26 0 -5 -8 -6 -17 -2 -10 3 -15 3 -11 -2 12 -13 -11 -45 -33 -45 -11 0
-22 -7 -26 -16 -3 -8 -12 -13 -19 -10 -9 3 -14 -2 -14 -13 0 -30 -34 -65 -54
-58 -13 5 -16 13 -11 25 4 9 8 27 8 40 1 24 12 30 20 10 3 -7 6 -4 6 7 0 11
-3 26 -8 33 -10 16 -17 2 -36 -73 -7 -27 -13 -42 -14 -32 -1 9 -5 17 -9 17 -4
0 -13 14 -19 30 -6 17 -7 28 -2 24 15 -9 10 23 -5 35 -13 11 -12 15 5 32 10
10 23 19 29 19 5 0 17 11 27 23 17 23 53 26 53 6z"/>
</g>
</svg>
