<?xml version="1.0" standalone="no"?>
<!DOCTYPE svg PUBLIC "-//W3C//DTD SVG 20010904//EN"
 "http://www.w3.org/TR/2001/REC-SVG-20010904/DTD/svg10.dtd">
<svg version="1.0" xmlns="http://www.w3.org/2000/svg"
 width="300.000000pt" height="200.000000pt" viewBox="0 0 300.000000 200.000000"
 preserveAspectRatio="xMidYMid meet">
<metadata>
Created by potrace 1.15, written by Peter Selinger 2001-2017
</metadata>
<g transform="translate(0.000000,200.000000) scale(0.100000,-0.100000)"
fill="#000000" stroke="none">
<path d="M0 1322 l0 -678 35 4 36 4 -14 -33 c-9 -22 -21 -35 -36 -37 -16 -3
-21 -9 -19 -25 2 -17 14 -23 73 -34 39 -7 83 -14 99 -15 15 -1 30 -8 33 -15 3
-8 15 -10 33 -7 15 4 37 1 48 -5 17 -9 22 -8 27 10 7 21 7 21 26 1 10 -11 33
-23 51 -27 43 -9 48 -13 42 -29 -3 -8 -16 -12 -32 -9 l-27 3 28 -11 c15 -6 27
-15 27 -20 0 -18 49 26 50 44 0 25 14 21 30 -8 14 -26 62 -37 57 -13 -1 7 7
12 18 13 12 0 19 6 17 14 -2 9 4 12 18 8 13 -3 20 0 21 9 3 31 4 34 14 34 6 0
10 -6 10 -12 0 -7 8 -12 17 -10 14 2 16 -5 12 -40 -5 -55 5 -70 50 -71 38 -1
60 16 51 40 -10 27 13 11 25 -17 8 -18 20 -30 31 -30 11 0 19 -5 19 -11 0 -6
10 -9 23 -7 17 2 22 9 20 31 -1 15 2 27 8 27 6 0 7 5 4 10 -3 6 2 10 12 10 14
0 15 2 4 9 -9 6 -5 8 14 8 20 0 23 -2 14 -9 -11 -7 -9 -8 5 -6 12 2 23 15 28
33 5 22 14 31 28 31 11 0 20 -4 20 -9 0 -5 10 -7 23 -5 30 4 35 43 7 58 -19
10 -21 10 -11 -8 9 -17 7 -19 -25 -17 -19 2 -36 4 -37 6 -11 18 -23 68 -16 63
5 -3 9 2 9 10 0 9 -9 16 -20 16 -15 0 -20 -7 -20 -25 0 -31 -17 -33 -22 -3 -4
31 -42 48 -82 37 -17 -5 -52 -9 -78 -9 -32 0 -48 -4 -48 -12 0 -10 -2 -10 -8
0 -6 9 -40 12 -125 10 -106 -3 -117 -1 -117 15 0 23 -26 22 -33 -2 -4 -17 -16
-19 -128 -21 -68 -1 -150 -2 -181 -3 -31 -1 -60 2 -64 5 -3 4 4 20 16 35 21
25 22 26 17 6 -7 -31 1 -29 13 2 5 14 17 25 25 25 9 0 13 5 10 10 -3 6 -2 10
3 10 6 0 12 -6 15 -14 6 -16 77 -18 77 -3 0 5 -16 7 -35 4 -19 -3 -35 -2 -35
4 0 7 220 16 283 11 9 -1 17 3 17 9 0 8 4 8 14 0 20 -17 84 -5 126 24 24 17
43 23 55 19 14 -6 17 -4 12 9 -3 8 -1 17 4 19 17 6 -2 38 -22 38 -10 0 -19 5
-19 10 0 14 34 12 49 -2 10 -11 11 -9 5 6 -5 14 -3 17 7 14 8 -3 13 -12 11
-22 -2 -9 4 -16 12 -16 13 0 14 5 5 27 -7 19 -7 28 3 34 18 11 27 2 21 -21 -3
-12 0 -20 6 -20 7 0 11 -7 9 -16 -2 -11 7 -20 27 -27 32 -11 47 -26 39 -39 -3
-4 -1 -8 4 -8 6 0 8 -9 5 -20 -6 -24 5 -25 35 -5 18 14 21 14 16 1 -3 -8 -12
-17 -20 -20 -22 -9 -16 -23 10 -24 16 0 26 7 30 21 3 13 10 18 20 14 20 -8 20
3 0 31 -8 12 -12 22 -8 22 3 0 1 7 -6 15 -15 18 1 20 18 3 9 -9 12 -8 12 5 0
9 5 17 10 17 13 0 13 -13 -1 -27 -6 -6 -8 -16 -4 -23 5 -8 11 -6 21 7 12 17
13 16 14 -9 0 -32 8 -35 25 -11 11 15 13 15 20 -6 4 -13 12 -20 20 -18 7 3 18
0 24 -6 15 -15 14 5 -1 23 -7 8 -4 7 8 -3 26 -21 34 -22 34 -1 0 12 4 14 13 7
6 -6 20 -13 31 -17 14 -5 17 -2 12 9 -3 8 -1 15 3 15 5 0 11 -7 15 -15 9 -25
28 -18 20 8 -6 22 -6 22 21 -3 l28 -25 -13 23 c-11 22 -10 23 12 17 20 -7 21
-6 9 9 -7 9 -28 16 -46 16 -18 0 -39 8 -48 18 -25 28 -20 35 11 15 l27 -18
-17 27 c-20 31 -24 51 -5 27 7 -8 22 -18 35 -21 l22 -6 -22 31 c-13 18 -22 38
-20 44 4 16 -10 17 -25 2 -13 -13 -33 -4 -33 15 0 16 -31 16 -43 1 -5 -6 -7
-4 -4 5 2 8 0 23 -5 33 -6 12 -5 17 4 17 7 1 1 8 -14 16 -27 14 -36 38 -19 48
4 3 16 -3 26 -14 29 -32 39 -23 11 10 -14 17 -23 37 -19 46 6 17 -25 56 -39
48 -5 -3 -6 -15 -3 -27 5 -17 -2 -13 -30 16 -20 21 -34 42 -30 45 4 4 11 -1
16 -10 5 -10 16 -15 24 -12 8 4 12 10 9 15 -3 5 -10 6 -16 3 -7 -4 -8 -2 -4 4
4 6 -12 22 -39 37 -25 15 -45 33 -45 40 0 8 -7 18 -16 23 -20 11 -10 34 11 25
11 -4 13 -1 9 11 -3 9 -2 16 4 16 5 0 12 -10 16 -22 5 -22 56 -56 56 -38 0 23
36 0 45 -28 5 -18 13 -32 17 -32 4 0 4 -10 -1 -23 -7 -19 -3 -31 25 -63 18
-21 33 -34 34 -28 0 6 -11 21 -25 34 -28 27 -32 40 -10 40 7 0 19 8 25 18 9
14 10 12 8 -14 -2 -17 2 -36 9 -43 10 -9 13 -8 13 9 0 12 7 20 16 20 14 0 14
-3 4 -15 -9 -11 -9 -15 -1 -15 6 0 20 20 31 45 11 25 24 45 30 45 7 0 7 -6 1
-17 -5 -10 -12 -25 -16 -33 -3 -8 -12 -26 -20 -40 -12 -21 -12 -26 0 -33 9 -4
20 -5 25 -2 6 4 8 -7 4 -27 l-5 -33 15 30 c10 21 15 25 15 12 2 -32 40 -55
101 -59 8 0 20 -5 27 -10 7 -6 15 -3 22 9 9 15 10 13 11 -14 0 -18 4 -33 9
-33 5 0 9 14 9 32 -1 18 4 34 11 36 9 3 9 7 0 18 -6 8 -16 11 -22 7 -5 -3 -7
-1 -4 4 9 14 -19 37 -36 30 -10 -4 -14 4 -15 24 0 16 4 29 9 29 5 0 9 -7 9
-15 0 -20 16 -19 24 2 6 14 8 14 21 -3 14 -18 15 -18 12 5 -1 16 4 25 15 26
10 2 16 -2 15 -8 -1 -7 8 -12 21 -11 12 0 22 -3 22 -8 0 -4 4 -8 9 -8 5 0 7 9
4 20 -4 16 -2 19 13 14 18 -5 18 -5 2 6 -10 6 -18 15 -18 19 0 13 39 20 47 9
3 -7 1 -8 -5 -4 -7 4 -12 2 -12 -4 0 -21 23 -4 25 17 1 17 -2 20 -19 13 -13
-5 -32 -2 -49 7 -15 7 -33 13 -40 12 -24 -3 -57 14 -57 28 0 10 6 12 23 7 22
-7 22 -6 3 15 -11 11 -25 21 -31 21 -7 0 -19 8 -26 18 -11 14 -11 15 1 5 16
-15 34 -17 25 -4 -3 5 -1 12 5 16 6 3 13 -1 16 -9 5 -14 8 -14 21 -1 8 9 19
13 24 10 5 -4 9 2 9 12 0 15 2 15 9 4 7 -10 4 -19 -7 -28 -18 -13 -18 -13 16
-17 14 -2 21 2 19 8 -3 7 4 12 14 12 11 0 19 -4 19 -8 0 -4 5 -8 10 -8 6 0 1
16 -10 37 -10 20 -17 40 -14 44 3 5 -2 6 -10 3 -9 -4 -18 1 -22 10 -3 9 -10
16 -16 16 -5 0 -6 -5 -3 -10 4 -6 1 -17 -5 -25 -10 -13 -16 -12 -41 1 -16 8
-29 21 -29 29 0 17 31 28 54 19 9 -4 16 -1 16 6 0 7 7 10 18 6 10 -4 7 2 -8
13 -31 25 -23 35 13 16 15 -8 27 -10 27 -6 0 10 -48 54 -85 77 -28 18 -29 18
-22 1 5 -13 3 -17 -5 -15 -7 3 -13 11 -13 19 0 8 -16 19 -35 25 -50 16 -115
84 -81 84 5 0 23 -11 39 -25 l30 -25 0 24 c-1 18 -5 23 -17 19 -13 -4 -13 -3
-2 5 21 15 43 3 36 -19 -8 -23 11 -25 23 -2 8 14 12 12 25 -13 l16 -29 -6 38
c-7 45 7 48 36 10 l20 -28 1 25 c1 24 1 24 15 6 9 -11 15 -14 15 -7 0 7 -15
27 -32 44 -18 18 -38 43 -45 57 -14 31 -17 11 -3 -24 8 -23 7 -26 -10 -26 -11
0 -20 7 -20 15 0 9 -7 18 -15 21 -8 4 -15 13 -15 20 0 11 -4 12 -19 5 -10 -6
-22 -7 -25 -3 -4 4 -16 -4 -26 -18 -12 -15 -20 -19 -20 -11 0 16 -29 40 -48
41 -7 0 -10 -4 -7 -10 3 -5 1 -10 -5 -10 -6 0 -8 -4 -5 -10 11 -18 -12 -10
-31 11 -10 11 -19 37 -21 57 -2 33 0 35 11 20 7 -10 18 -18 25 -18 6 0 11 -7
11 -15 0 -19 14 -19 34 1 9 8 20 12 26 9 5 -3 10 1 10 9 0 10 6 13 17 9 12 -5
15 -2 10 10 -4 11 -2 14 8 10 8 -3 12 -9 9 -14 -10 -16 21 -38 39 -27 14 7 17
5 17 -15 0 -30 9 -39 25 -24 9 8 10 17 3 30 -5 10 -7 21 -4 25 3 3 6 -1 6 -9
0 -12 2 -11 11 1 8 12 9 11 5 -6 -4 -13 1 -28 14 -42 21 -23 40 -29 40 -13 0
14 29 21 36 9 4 -7 3 -8 -4 -4 -7 4 -12 3 -12 -3 0 -5 5 -13 11 -17 6 -3 9
-19 5 -34 -3 -19 0 -33 11 -42 15 -12 15 -11 5 8 -6 12 -8 25 -4 29 4 3 7 12
7 17 0 6 6 13 13 16 6 2 12 -1 12 -7 0 -6 5 -11 11 -11 6 0 9 7 5 15 -7 18 5
20 23 3 11 -11 12 -10 6 0 -7 13 -57 37 -63 30 -2 -2 -10 12 -17 30 -8 17 -19
32 -25 32 -5 0 -10 8 -10 18 0 14 2 15 10 2 6 -10 10 -11 10 -2 0 17 31 15 59
-5 24 -16 24 -16 18 7 -4 15 1 33 14 52 18 25 18 29 5 34 -9 3 -14 10 -11 14
9 14 -7 41 -20 36 -8 -3 -16 2 -19 10 -3 8 1 14 10 14 9 0 14 6 11 13 -3 8 7
13 28 14 27 1 32 -2 28 -16 -3 -10 2 -21 10 -24 10 -4 13 1 10 21 l-5 27 21
-25 c20 -24 20 -24 14 -2 -8 31 -16 34 -94 39 -51 3 -69 1 -69 -8 0 -10 -3
-10 -12 -1 -9 9 -194 12 -770 12 l-758 0 0 -678z"/>
<path d="M2958 1062 c4 -12 1 -14 -13 -9 -10 5 -28 1 -42 -8 -13 -9 -37 -17
-53 -18 -16 -1 -32 -8 -35 -14 -6 -18 -26 -16 -54 6 -14 10 -31 17 -38 14 -7
-3 -13 1 -13 7 0 8 -7 6 -17 -6 -10 -11 -35 -28 -55 -38 l-36 -20 24 -12 c14
-7 31 -11 39 -7 8 3 15 0 15 -6 0 -6 -7 -11 -15 -11 -8 0 -15 -4 -15 -10 0 -5
6 -10 13 -10 8 0 8 -3 -2 -9 -17 -11 -43 -3 -35 10 3 5 -2 9 -10 9 -9 0 -16
-3 -16 -7 1 -9 67 -53 81 -53 5 0 9 -4 9 -10 0 -5 -9 -10 -20 -10 -11 0 -20 5
-20 10 0 20 -31 9 -42 -15 -17 -39 -29 -30 -12 10 13 31 13 35 -1 35 -9 0 -12
6 -9 15 4 10 0 15 -11 15 -13 0 -16 -6 -11 -25 6 -22 3 -25 -18 -25 -13 0 -32
-3 -42 -7 -12 -4 -15 -3 -10 5 10 17 -9 15 -24 -2 -6 -8 -19 -12 -28 -9 -14 4
-15 3 -2 -6 13 -9 13 -12 -3 -24 -17 -12 -17 -14 -3 -26 9 -7 13 -17 10 -22
-3 -5 0 -9 5 -9 15 0 14 23 -1 38 -7 7 -8 12 -4 12 5 0 15 -8 23 -17 14 -17
14 -17 9 1 -5 14 -2 17 10 12 8 -3 18 -6 20 -6 2 0 4 -7 4 -16 0 -8 -4 -13 -9
-9 -5 3 -12 1 -16 -5 -3 -5 1 -10 9 -10 9 0 16 -4 16 -8 0 -5 10 -14 23 -21
22 -11 22 -11 0 -6 -17 5 -22 2 -20 -15 1 -19 7 -20 192 -20 104 0 214 -3 243
-6 l52 -7 0 140 c0 95 -4 143 -12 151 -9 9 -9 12 0 12 7 0 12 15 12 39 0 33
-4 39 -24 43 -19 4 -23 1 -18 -10z"/>
<path d="M2680 670 c-39 -6 -40 -7 -12 -8 17 -1 32 -6 32 -12 0 -5 8 -10 18
-10 14 0 15 2 2 10 -12 8 -10 10 8 10 13 0 20 -4 17 -10 -6 -9 48 -14 137 -12
18 0 28 -6 31 -19 6 -22 -3 -25 -21 -7 -9 9 -15 9 -24 0 -7 -7 -33 -12 -60
-12 -41 0 -46 2 -41 18 6 16 6 16 -10 0 -15 -14 -34 -16 -115 -14 -53 2 -198
7 -322 11 -124 4 -223 5 -220 2 3 -3 38 -7 78 -8 77 -2 80 -4 56 -63 -6 -16
-4 -18 11 -13 15 6 16 5 5 -8 -8 -10 -9 -15 -1 -15 6 0 14 0 19 0 4 0 7 6 7
13 0 6 5 15 10 19 6 4 2 8 -7 8 -20 0 -25 20 -5 21 6 0 20 2 30 4 13 2 16 -1
12 -15 -3 -10 -2 -21 3 -24 6 -3 12 4 15 16 4 12 9 19 12 16 8 -7 -13 -49 -29
-61 -6 -5 -1 -6 11 -2 12 3 24 1 28 -5 3 -5 1 -10 -4 -10 -6 0 -11 -6 -11 -12
1 -7 10 -2 20 11 l20 23 20 -23 c10 -13 19 -27 20 -31 0 -5 5 -8 11 -8 8 0 8
5 -1 15 -10 12 -10 15 4 15 9 0 16 -3 16 -8 0 -4 9 -13 19 -19 16 -10 20 -9
25 3 3 8 2 12 -3 9 -5 -3 -12 -1 -15 4 -4 6 7 8 24 6 16 -2 30 -1 30 3 0 4 18
8 40 8 25 0 37 -3 33 -10 -3 -6 -3 -8 1 -4 5 4 19 2 33 -3 17 -6 30 -6 37 0 8
7 22 7 42 1 l29 -10 -32 5 c-40 6 -44 -10 -5 -18 15 -3 33 0 42 8 8 7 27 12
41 10 14 -2 36 5 50 15 27 21 21 37 -9 21 -12 -6 -29 -11 -39 -10 -16 0 -16 1
2 9 17 7 16 9 -10 9 -20 1 -26 4 -17 10 7 4 35 6 63 3 35 -3 49 -1 49 8 0 10
15 11 60 7 l60 -5 0 43 c0 33 -4 45 -17 48 -17 4 -17 5 0 6 11 1 17 9 17 26
l0 25 -137 -2 c-76 0 -158 -4 -183 -8z"/>
<path d="M0 486 c0 -18 7 -26 23 -29 l22 -4 -22 -2 -23 -1 0 -226 0 -225 648
2 c539 1 649 4 649 15 0 8 -11 14 -26 14 -23 1 -24 2 -8 11 14 8 23 7 35 -4
11 -10 27 -13 44 -10 16 3 50 -2 76 -11 50 -16 245 -19 217 -4 -29 17 -135 45
-140 38 -6 -9 19 -20 46 -20 10 0 19 -3 19 -7 0 -15 -81 -14 -113 1 -51 22
-95 35 -101 29 -3 -4 -6 -2 -6 4 0 14 -47 34 -65 27 -8 -4 -15 -1 -15 5 0 6
10 11 22 11 27 0 13 15 -22 24 -14 3 -19 3 -12 0 6 -3 10 -9 7 -14 -3 -5 -19
-2 -35 7 -17 8 -36 13 -43 10 -6 -2 1 -8 16 -12 29 -8 32 -28 4 -33 -12 -2
-15 1 -11 12 5 12 -1 16 -23 16 -16 0 -34 -5 -39 -10 -8 -8 -15 -6 -25 6 -13
16 -12 17 9 12 15 -4 22 -2 19 5 -2 7 -9 12 -15 11 -7 -1 -26 -2 -42 -2 -27
-2 -30 -4 -20 -22 6 -11 18 -20 27 -20 9 0 14 -3 10 -6 -10 -10 -58 5 -52 16
3 6 -3 10 -14 10 -12 0 -21 5 -21 10 0 15 44 30 71 23 13 -3 21 -2 17 2 -4 5
-4 13 2 19 6 9 0 11 -23 11 -18 -1 -36 1 -42 4 -5 3 -12 6 -15 7 -3 0 -26 4
-53 8 -26 5 -50 12 -53 17 -3 5 -14 9 -25 9 -10 0 -19 5 -19 11 0 8 -20 9 -66
4 -67 -7 -78 -5 -179 40 -29 13 -29 14 -5 15 23 1 24 2 7 14 -13 10 -27 12
-48 6 -17 -5 -29 -5 -29 1 0 5 5 9 11 9 5 0 8 4 4 9 -6 11 -45 10 -45 -1 0 -4
-7 -5 -16 -1 -11 4 -12 8 -4 13 21 13 -9 24 -70 26 -78 3 -80 3 -80 13 0 5 19
7 43 4 39 -5 48 7 9 14 -9 1 -33 5 -52 9 -19 3 -60 8 -90 11 -51 5 -69 15 -70
37 0 5 6 4 13 -1 6 -5 26 -9 42 -10 21 -1 23 0 8 4 -13 2 -23 9 -23 14 0 5
-19 7 -42 6 -24 -2 -58 3 -77 10 -18 8 -40 12 -48 9 -8 -3 -12 -2 -9 3 6 9
-15 21 -35 21 -5 0 -9 -11 -9 -24z"/>
</g>
</svg>
